<?xml version="1.0" encoding="utf-8"?>
<!-- Generator: Adobe Illustrator 16.0.0, SVG Export Plug-In . SVG Version: 6.00 Build 0)  -->
<!DOCTYPE svg PUBLIC "-//W3C//DTD SVG 1.1//EN" "http://www.w3.org/Graphics/SVG/1.1/DTD/svg11.dtd">
<svg version="1.1" id="Ebene_1" xmlns="http://www.w3.org/2000/svg" xmlns:xlink="http://www.w3.org/1999/xlink" x="0px" y="0px"
	 width="297.641px" height="99.21px" viewBox="0 0 297.641 99.21" enable-background="new 0 0 297.641 99.21" xml:space="preserve">
<path d="M174.132,30.788c-0.786-0.507-1.369-0.684-2.054-0.684c-1.217,0-1.875,0.761-1.875,2.41v0.834h4.967v1.928h-4.967v10.849
	h-2.131V35.276h-3.601v-1.928h3.601v-0.785c0-3.093,1.495-4.386,3.929-4.386c1.167,0,1.952,0.305,2.662,0.735L174.132,30.788z"/>
<path d="M182.272,44.401c2.61,0,4.105-2.206,4.105-4.665c0-2.458-1.495-4.664-4.105-4.664s-4.106,2.206-4.106,4.664
	C178.166,42.195,179.662,44.401,182.272,44.401 M182.272,33.145c3.901,0,6.286,3.068,6.286,6.592s-2.385,6.591-6.286,6.591
	c-3.903,0-6.287-3.067-6.287-6.591C175.985,36.212,178.369,33.145,182.272,33.145"/>
<path d="M200.062,37.404c-0.178-1.47-0.938-2.331-2.458-2.331c-2.23,0-4.334,2.103-4.334,6.439v4.612h-2.13V33.348h2.13v2.358
	c0.988-1.547,2.584-2.562,4.714-2.562c2.536,0,4.056,1.522,4.209,4.26H200.062z"/>
<path d="M174.815,68.281c-0.812,1.775-2.586,2.588-4.461,2.588c-3.854,0-7.174-2.941-7.174-9.076s3.319-9.076,7.325-9.076
	c3.497,0,5.578,2.257,6.361,5.4l-2.104,0.633c-0.786-2.584-2.028-3.903-4.259-3.903c-3.019,0-5.021,2.104-5.021,6.946
	s2.003,6.945,5.021,6.945c2.434,0,3.75-1.75,3.979-4.893h-3.979v-2.129h6.287v8.947h-1.853L174.815,68.281z"/>
<path d="M181.19,62.807h7.578c-0.38-2.026-1.725-3.192-3.802-3.192C182.915,59.613,181.622,60.878,181.19,62.807 M191.026,64.732
	h-9.989c0.128,2.535,1.675,4.207,3.931,4.207c1.927,0,3.244-0.936,4.106-2.533l1.697,0.887c-1.394,2.688-3.421,3.576-5.805,3.576
	c-3.728,0-6.108-2.865-6.108-6.592c0-3.602,2.28-6.592,6.108-6.592c3.954,0,6.06,2.812,6.06,6.16V64.732L191.026,64.732z"/>
<path d="M202.16,61.943c-0.177-1.471-0.937-2.332-2.458-2.332c-2.229,0-4.334,2.105-4.334,6.441v4.611h-2.13V57.889h2.13v2.356
	c0.988-1.547,2.584-2.561,4.714-2.561c2.536,0,4.057,1.521,4.209,4.258H202.16z"/>
<path d="M219.472,70.664h-2.129v-9.074c0-1.395-0.406-1.95-1.396-1.95c-1.216,0-2.256,1.442-2.256,5.019v6.008h-2.13v-9.076
	c0-1.395-0.405-1.95-1.395-1.95c-1.216,0-2.256,1.442-2.256,5.019v6.008h-2.13V57.889h2.13v1.623
	c0.659-1.063,1.674-1.826,2.991-1.826c1.445,0,2.281,0.812,2.636,2.078c0.659-1.216,1.801-2.078,3.145-2.078
	c1.571,0,2.788,1.015,2.788,3.448L219.472,70.664L219.472,70.664z"/>
<path d="M226.111,68.941c1.648,0,4.084-1.014,4.084-3.904v-0.404h-2.79c-2.181,0-3.396,0.912-3.396,2.355
	C224.009,68.205,224.846,68.941,226.111,68.941 M232.323,70.664h-1.725l-0.306-1.799c-0.811,1.166-2.608,2.004-4.511,2.004
	c-2.13,0-3.956-1.27-3.956-3.881c0-2.84,2.281-4.182,5.781-4.182h2.587v-0.561c0-1.978-1.396-2.636-2.942-2.636
	c-1.496,0-2.61,0.938-3.017,2.183l-1.876-0.508c0.583-2.23,2.56-3.601,4.893-3.601c2.991,0,5.07,1.394,5.07,4.918L232.323,70.664
	L232.323,70.664z"/>
<path d="M245.855,70.664h-2.13v-8.44c0-1.774-0.837-2.611-2.358-2.611c-2.003,0-3.751,2.183-3.751,5.908v5.146h-2.13V57.889h2.13
	v2.356c0.911-1.471,2.511-2.561,4.334-2.561c2.662,0,3.905,1.623,3.905,4.082V70.664z"/>
<polygon points="260.808,57.889 253.227,75.835 251.099,75.835 253.581,69.803 248.057,57.889 250.438,57.889 254.723,67.242 
	258.499,57.889 "/>
<polygon fill="#D57A75" points="66.909,27.572 66.909,28.268 66.909,72.337 70.595,72.337 71.625,72.337 72.504,72.337 
	72.504,27.572 "/>
<g>
	<path fill="#CE5A4E" d="M89.102,76.535c0.384,0,0.889-0.348,0.889-0.729v-52.43c0-0.383-0.505-0.698-0.889-0.698H71.625
		c-0.384,0-0.519,0.157-0.519,0.349v1.048v3.496c0,0.384,0.135,0.702,0.519,0.702h11.884c0.385,0,0.888,0.311,0.888,0.696v41.247
		c0,0.383-0.503,0.725-0.888,0.725H71.625c-0.384,0-0.519,0.131-0.519,0.324v1.047v3.496c0,0.383,0.135,0.73,0.519,0.73h17.478
		V76.535z"/>
</g>
<polygon fill="#8BBD97" points="96.986,27.572 96.986,28.268 96.986,72.337 101.684,72.337 102.582,72.337 102.582,27.572 "/>
<g>
	<path fill="#4EA15A" d="M101.882,76.503v-5.592c7.694,0,13.063-9.565,13.063-21.322c0-11.757-5.369-21.322-13.063-21.322v-5.593
		c10.492,0,18.656,12.074,18.656,26.915C120.538,64.43,112.374,76.503,101.882,76.503"/>
	<path fill="#33A1DF" d="M43.827,59.307v7.713V69.5c0,4.185,2.678,7.035,6.909,7.035h1.189h3.426h4.04
		c0.192,0,0.523-0.348,0.523-0.729V71.61c0-0.383-0.489-0.672-0.873-0.672h-4.017h-2.05h-1.271c-1.81,0-2.282-0.771-2.282-2.838
		v-1.229v-6.729v-4.104c0-4.218-1.715-5.771-3.803-6.536c2.088-0.763,3.803-2.315,3.803-6.53v-2.914v-7.394V30.91
		c0-2.033,0.405-2.64,2.282-2.64h1.58h2.004h4.103c0.192,0,0.523-0.318,0.523-0.702v-4.195c0-0.383-0.489-0.698-0.873-0.698h-3.36
		H52.51h-1.773c-4.231,0-6.909,2.74-6.909,6.834v2.196v9.146c0,0-0.139,2.1-0.24,2.814c-0.265,1.891-2.582,3.511-4.017,3.491h-2.199
		c-0.385,0-0.539,0.3-0.539,0.685v4.196c0,0.383,0.154,0.715,0.539,0.715h2.008c1.832-0.025,4.146,1.518,4.321,3.819
		C43.753,57.24,43.827,59.307,43.827,59.307"/>
	<path fill="#BD3C38" d="M71.625,22.676h-1.981H67.43c-0.385,0-0.521,0.315-0.521,0.699v1.291v2.903v0.703h0.521h4.194h0.88v-0.703
		v-4.194v-0.699H71.625z"/>
	<path fill="#BD3C38" d="M66.909,71.611v1.98v2.213c0,0.385,0.137,0.73,0.521,0.73h1.292h2.902h0.879v-0.73v-4.193v-0.672h-0.879
		H67.43h-0.521V71.611z"/>
	<path fill="#27954E" d="M101.684,22.676h-1.981H97.49c-0.384,0-0.504,0.315-0.504,0.699v1.291v2.903v0.703h0.504h4.194h0.897
		v-0.703v-4.194v-0.699H101.684z"/>
	<path fill="#27954E" d="M96.986,71.611v1.98v2.213c0,0.385,0.12,0.73,0.504,0.73h1.291h2.903h0.897v-0.73v-4.193v-0.672h-0.897
		H97.49h-0.504V71.611z"/>
	<path fill="#7BBBB7" d="M131.959,59.307v7.713V69.5c0,4.185,2.627,7.035,6.859,7.035h1.189h3.426h4.04
		c0.192,0,0.572-0.348,0.572-0.729V71.61c0-0.383-0.538-0.672-0.922-0.672h-4.018h-2.05h-1.269c-1.81,0-2.232-0.771-2.232-2.838
		v-1.229v-6.729v-4.104c0-1.357-0.398-2.586-0.708-3.287h-9.388c2.579,0.701,3.682,1.623,4.207,3.869
		C131.929,57.74,131.959,59.307,131.959,59.307"/>
	<path fill="#7BBBB7" d="M131.562,43.665c-0.542,1.832-1.751,2.793-3.91,3.493h8.807c0.547-1.399,1.097-2.333,1.097-4.184v-2.913
		v-7.394v-1.756c0-2.032,0.354-2.639,2.232-2.639h1.579h2.003h4.104c0.192,0,0.572-0.318,0.572-0.702v-4.195
		c0-0.384-0.538-0.699-0.922-0.699h-3.359h-3.172h-1.774c-4.232,0-6.859,2.741-6.859,6.835v2.196v9.146
		C131.959,40.853,131.833,42.751,131.562,43.665"/>
	<path fill="#9AC9C6" d="M132.924,49.999c1.416,0.52,2.97,1.355,3.924,2.752h10.275c0.385,0,0.923-0.332,0.923-0.715v-4.194
		c0-0.386-0.538-0.687-0.923-0.687h-10.664C135.759,48.556,134.096,49.571,132.924,49.999"/>
	<path fill="#42A5A5" d="M125.453,47.158c-0.385,0-0.489,0.301-0.489,0.685v4.196c0,0.385,0.104,0.717,0.489,0.717h2.007h9.388
		c-0.631-1.4-2.196-2.358-3.314-2.793c1.172-0.43,2.226-1.404,2.926-2.803h-8.808L125.453,47.158L125.453,47.158z"/>
</g>
</svg>
