<?xml version="1.0" encoding="utf-8"?>
<!-- Generator: Adobe Illustrator 16.0.0, SVG Export Plug-In . SVG Version: 6.00 Build 0)  -->
<!DOCTYPE svg PUBLIC "-//W3C//DTD SVG 1.1//EN" "http://www.w3.org/Graphics/SVG/1.1/DTD/svg11.dtd">
<svg version="1.1" id="Ebene_1" xmlns="http://www.w3.org/2000/svg" xmlns:xlink="http://www.w3.org/1999/xlink" x="0px" y="0px"
	 width="297.641px" height="99.21px" viewBox="0 0 297.641 99.21" enable-background="new 0 0 297.641 99.21" xml:space="preserve">
<path d="M174.132,30.788c-0.786-0.507-1.369-0.684-2.054-0.684c-1.217,0-1.875,0.761-1.875,2.41v0.834h4.967v1.928h-4.967v10.849
	h-2.131V35.276h-3.601v-1.928h3.601v-0.785c0-3.093,1.495-4.386,3.929-4.386c1.167,0,1.952,0.305,2.662,0.735L174.132,30.788z"/>
<path d="M182.272,44.401c2.61,0,4.105-2.206,4.105-4.665c0-2.458-1.495-4.664-4.105-4.664s-4.106,2.206-4.106,4.664
	C178.166,42.195,179.662,44.401,182.272,44.401 M182.272,33.145c3.901,0,6.286,3.068,6.286,6.592s-2.385,6.591-6.286,6.591
	c-3.903,0-6.287-3.067-6.287-6.591C175.985,36.212,178.369,33.145,182.272,33.145"/>
<path d="M200.062,37.404c-0.178-1.47-0.938-2.331-2.458-2.331c-2.23,0-4.334,2.103-4.334,6.439v4.612h-2.13V33.348h2.13v2.358
	c0.988-1.547,2.584-2.562,4.714-2.562c2.536,0,4.056,1.522,4.209,4.26H200.062z"/>
<polygon fill="#D57A75" points="66.909,27.572 66.909,28.268 66.909,72.337 70.595,72.337 71.625,72.337 72.504,72.337 
	72.504,27.572 "/>
<g>
	<path fill="#CE5A4E" d="M89.102,76.535c0.384,0,0.889-0.348,0.889-0.729v-52.43c0-0.383-0.505-0.698-0.889-0.698H71.625
		c-0.384,0-0.519,0.157-0.519,0.349v1.048v3.496c0,0.384,0.135,0.702,0.519,0.702h11.884c0.385,0,0.888,0.311,0.888,0.696v41.247
		c0,0.383-0.503,0.725-0.888,0.725H71.625c-0.384,0-0.519,0.131-0.519,0.324v1.047v3.496c0,0.383,0.135,0.73,0.519,0.73h17.478
		V76.535z"/>
</g>
<polygon fill="#8BBD97" points="96.986,27.572 96.986,28.268 96.986,72.337 101.684,72.337 102.582,72.337 102.582,27.572 "/>
<g>
	<path fill="#4EA15A" d="M101.882,76.503v-5.592c7.694,0,13.063-9.565,13.063-21.322c0-11.757-5.369-21.322-13.063-21.322v-5.593
		c10.492,0,18.656,12.074,18.656,26.915C120.538,64.43,112.374,76.503,101.882,76.503"/>
	<path fill="#33A1DF" d="M43.827,59.307v7.713V69.5c0,4.185,2.678,7.035,6.909,7.035h1.189h3.426h4.04
		c0.192,0,0.523-0.348,0.523-0.729V71.61c0-0.383-0.489-0.672-0.873-0.672h-4.017h-2.05h-1.271c-1.81,0-2.282-0.771-2.282-2.838
		v-1.229v-6.729v-4.104c0-4.218-1.715-5.771-3.803-6.536c2.088-0.763,3.803-2.315,3.803-6.53v-2.914v-7.394V30.91
		c0-2.033,0.405-2.64,2.282-2.64h1.58h2.004h4.103c0.192,0,0.523-0.318,0.523-0.702v-4.195c0-0.383-0.489-0.698-0.873-0.698h-3.36
		H52.51h-1.773c-4.231,0-6.909,2.74-6.909,6.834v2.196v9.146c0,0-0.139,2.1-0.24,2.814c-0.265,1.891-2.582,3.511-4.017,3.491h-2.199
		c-0.385,0-0.539,0.3-0.539,0.685v4.196c0,0.383,0.154,0.715,0.539,0.715h2.008c1.832-0.025,4.146,1.518,4.321,3.819
		C43.753,57.24,43.827,59.307,43.827,59.307"/>
	<path fill="#BD3C38" d="M71.625,22.676h-1.981H67.43c-0.385,0-0.521,0.315-0.521,0.699v1.291v2.903v0.703h0.521h4.194h0.88v-0.703
		v-4.194v-0.699H71.625z"/>
	<path fill="#BD3C38" d="M66.909,71.611v1.98v2.213c0,0.385,0.137,0.73,0.521,0.73h1.292h2.902h0.879v-0.73v-4.193v-0.672h-0.879
		H67.43h-0.521V71.611z"/>
	<path fill="#27954E" d="M101.684,22.676h-1.981H97.49c-0.384,0-0.504,0.315-0.504,0.699v1.291v2.903v0.703h0.504h4.194h0.897
		v-0.703v-4.194v-0.699H101.684z"/>
	<path fill="#27954E" d="M96.986,71.611v1.98v2.213c0,0.385,0.12,0.73,0.504,0.73h1.291h2.903h0.897v-0.73v-4.193v-0.672h-0.897
		H97.49h-0.504V71.611z"/>
	<path fill="#7BBBB7" d="M131.959,59.307v7.713V69.5c0,4.185,2.627,7.035,6.859,7.035h1.189h3.426h4.04
		c0.192,0,0.572-0.348,0.572-0.729V71.61c0-0.383-0.538-0.672-0.922-0.672h-4.018h-2.05h-1.269c-1.81,0-2.232-0.771-2.232-2.838
		v-1.229v-6.729v-4.104c0-1.357-0.398-2.586-0.708-3.287h-9.388c2.579,0.701,3.682,1.623,4.207,3.869
		C131.929,57.74,131.959,59.307,131.959,59.307"/>
	<path fill="#7BBBB7" d="M131.562,43.665c-0.542,1.832-1.751,2.793-3.91,3.493h8.807c0.547-1.399,1.097-2.333,1.097-4.184v-2.913
		v-7.394v-1.756c0-2.032,0.354-2.639,2.232-2.639h1.579h2.003h4.104c0.192,0,0.572-0.318,0.572-0.702v-4.195
		c0-0.384-0.538-0.699-0.922-0.699h-3.359h-3.172h-1.774c-4.232,0-6.859,2.741-6.859,6.835v2.196v9.146
		C131.959,40.853,131.833,42.751,131.562,43.665"/>
	<path fill="#9AC9C6" d="M132.924,49.999c1.416,0.52,2.97,1.355,3.924,2.752h10.275c0.385,0,0.923-0.332,0.923-0.715v-4.194
		c0-0.386-0.538-0.687-0.923-0.687h-10.664C135.759,48.556,134.096,49.571,132.924,49.999"/>
	<path fill="#42A5A5" d="M125.453,47.158c-0.385,0-0.489,0.301-0.489,0.685v4.196c0,0.385,0.104,0.717,0.489,0.717h2.007h9.388
		c-0.631-1.4-2.196-2.358-3.314-2.793c1.172-0.43,2.226-1.404,2.926-2.803h-8.808L125.453,47.158L125.453,47.158z"/>
</g>
<rect x="161.604" y="49.18" fill="#CE5A4E" width="101.677" height="30.927"/>
<g>
	<path fill="#FFFFFF" d="M181.258,67.15c-0.559,2.232-2.089,3.835-4.52,3.835c-2.845,0-5.203-2.089-5.203-6.446
		s2.358-6.445,5.203-6.445c2.431,0,3.961,1.602,4.52,3.835l-1.494,0.45c-0.559-1.837-1.441-2.773-3.025-2.773
		c-2.143,0-3.565,1.495-3.565,4.934c0,3.439,1.423,4.934,3.565,4.934c1.584,0,2.467-0.936,3.025-2.772L181.258,67.15z"/>
	<path fill="#FFFFFF" d="M190.617,70.841h-1.513v-5.942c0-1.314-0.576-1.908-1.675-1.908c-1.422,0-2.881,1.458-2.881,4.051v3.8
		h-1.512V58.093h1.512v5.348c0.667-0.973,1.873-1.818,3.296-1.818c1.944,0,2.772,1.152,2.772,2.952V70.841z"/>
	<path fill="#FFFFFF" d="M201.543,66.627h-7.094c0.09,1.801,1.188,2.989,2.791,2.989c1.368,0,2.305-0.666,2.917-1.801l1.206,0.631
		c-0.99,1.908-2.431,2.538-4.123,2.538c-2.647,0-4.34-2.034-4.34-4.682c0-2.557,1.621-4.681,4.34-4.681
		c2.809,0,4.303,1.998,4.303,4.375V66.627z M194.556,65.259h5.384c-0.27-1.44-1.224-2.269-2.7-2.269
		C195.781,62.991,194.863,63.89,194.556,65.259z"/>
	<path fill="#FFFFFF" d="M212.559,70.841h-1.513v-6.446c0-0.99-0.287-1.387-0.99-1.387c-0.864,0-1.602,1.026-1.602,3.565v4.268
		h-1.513v-6.446c0-0.99-0.288-1.387-0.99-1.387c-0.864,0-1.603,1.026-1.603,3.565v4.268h-1.513v-9.075h1.513v1.152
		c0.468-0.757,1.188-1.296,2.124-1.296c1.026,0,1.621,0.576,1.873,1.477c0.468-0.865,1.278-1.477,2.232-1.477
		c1.116,0,1.98,0.72,1.98,2.448V70.841z"/>
	<path fill="#FFFFFF" d="M221.811,70.841H220.3v-5.996c0-1.261-0.595-1.854-1.675-1.854c-1.423,0-2.665,1.548-2.665,4.194v3.656
		h-1.513v-9.075h1.513v1.675c0.648-1.045,1.782-1.818,3.079-1.818c1.891,0,2.772,1.152,2.772,2.898V70.841z"/>
	<path fill="#FFFFFF" d="M225.176,61.766h4.286v7.742h3.349v1.333h-7.994v-1.333h3.133v-6.409h-2.773V61.766z M228.597,58.093
		c0.702,0,1.242,0.559,1.242,1.26c0,0.685-0.54,1.225-1.242,1.225c-0.685,0-1.243-0.54-1.243-1.225
		C227.354,58.652,227.913,58.093,228.597,58.093z"/>
	<path fill="#FFFFFF" d="M234.481,61.766h2.413v-2.719l1.512-0.954v3.673h4.43v1.368h-4.43v4.646c0,1.261,0.559,1.837,1.566,1.837
		c0.793,0,1.44-0.252,2.233-1.08l0.558,1.277c-0.828,0.828-1.656,1.171-2.791,1.171c-1.98,0-3.078-1.044-3.078-3.151v-4.699h-2.413
		V61.766z"/>
	<path fill="#FFFFFF" d="M245.948,61.766h6.806v0.648l-4.808,7.058h5.023v1.369h-7.256v-0.648l4.754-7.059h-4.52V61.766z"/>
</g>
</svg>
