<svg xmlns="http://www.w3.org/2000/svg" xmlns:xlink="http://www.w3.org/1999/xlink" width="180" height="180" viewBox="0 0 180 180"><defs><linearGradient id="a"><stop offset="0" stop-color="#ff867f"/><stop offset="1" stop-color="#ff877f"/></linearGradient><linearGradient xlink:href="#a" id="b" x1="34.95" y1="115.925" x2="100.05" y2="115.925" gradientUnits="userSpaceOnUse" gradientTransform="translate(9.213 9.213)"/></defs><circle cx="90" cy="90" r="89.51" fill="#fff"/><g stroke-miterlimit="10" fill="none" stroke="#ff867f" stroke-width="2"><path d="M99.612 35.938C98.255 34.315 96.17 33 90.55 33h-.254c-5.617 0-7.617 1.116-8.977 2.74M87.39 40.51s-3.11-4.571-5.28-4.571c-4.545 0-6.862 3.353-6.862 3.353"/><path d="M82.513 40.592s-6.227-2.297-8.632-.9c-1.862 1.08-3.627 3.09-3.627 3.09"/><path d="M74.778 42.643s-14.755-3.565-34.024 25.23c0 0 4.438 9.636 12.125 14.834 0 0-6.003 8.418 1.436 24.096M80.24 66.836c0 .905-.72 1.672-1.626 1.672-.906 0-1.654-.767-1.654-1.672M71.591 70.364s2.496 4.053 4.888 4.06c1.78.003 7.116-4.783 9.036-4.783"/><path d="M92.831 80.409c1.578.342 2.133-.752 2.17-2.018.027-.994-1.756-2.054-3.045-1.288-.897.533-.582 2.328-2.488 2.328-1.586 0-1.586-1.354-1.586-2.437 0-1.2-2.363-2.87-1.39-6.01l-.703-2.588c-2.122-.837-2.853-2.264-6.687-2.483-2.658-.151-5.258 1.996-5.546 2.285"/><path d="M86.267 80.473c-1.926.317-2.156-1.121-2.195-1.878-.035-.686.668-1.491 1.776-1.467.805.018 1.371.396 2.055.656M84.071 87.542c-1.659.648-5.932 6.35-7.23 7.578-1.3 1.227-3.25 1.66-3.754.648-.505-1.011.433-3.607 0-4.33M66.301 54.667l-8.93 6.279M67.256 50.109l-7.989 4.233M66.687 67.909L52.878 82.706M42.415 71.814l6.133-3.94M41.31 68.978l4.172-2.73M49.415 70.947l11.72-7.73 6.121-.323M64.28 91.15l1.27-4.962M59.65 92.449l3.296-6.432M54.408 93.533l5.86-8.013M92.542 40.51s3.11-4.571 5.28-4.571c4.544 0 6.86 3.353 6.86 3.353"/><path d="M97.42 40.592s6.226-2.297 8.63-.9c1.863 1.08 3.627 3.09 3.627 3.09"/><path d="M105.152 42.643s14.755-3.565 34.024 25.23c0 0-4.438 9.636-12.125 14.834 0 0 5.806 8.14-1.078 23.322"/><path d="M106.558 95.769l2.704.908c2.017-5.645-1.21-9.477-1.21-9.477s1.915-2.621 2.22-4.437c.302-1.813 1.107-3.528 2.417-6.15 1.312-2.62-.302-13.811-.302-13.811 2.822-11.492-1.512-15.143-1.512-15.143-7.057-9.276-21.069-6.907-21.069-6.907h-.256s-14.013-2.37-21.07 6.907c0 0-4.334 3.742-1.512 15.233 0 0-1.61 11.146-.3 13.767 1.308 2.62 2.115 4.313 2.417 6.129.303 1.812 2.22 4.422 2.22 4.422s-3.227 3.828-1.212 9.473l2.707-.911"/><path d="M108.34 87.2c-1.897-3.011-9.074-4.35-10.156-4.854-1.082-.505-3.107-2.284-7.726-1.952l-1.566-.038c-4.618-.332-6.063 1.485-7.145 1.99-1.082.507-8.259 1.846-10.156 4.855M108.865 67.009c-1.786-2.706-3.627-4.006-6.135-4.366-1.962-.282-3.465.718-6.136 1.439-2.67.722-4.163.919-6.546.919h-.167c-2.382 0-3.876-.197-6.546-.92-2.67-.72-4.173-1.654-6.135-1.372-2.508.36-4.349 1.627-6.135 4.333M99.101 66.868a1.64 1.64 0 1 0 3.281 0"/><path d="M109.676 62.572s-1.047-5.974-9.422-5.435c-4.347.284-7.588.864-9.792.864h-.995c-2.202 0-5.445-.58-9.792-.864-8.374-.54-9.422 5.468-9.422 5.468M108.34 70.364s-2.418 4.053-4.812 4.06c-1.778.003-7.772-4.611-9.772-4.611l.54-1.415c2-.837 2.772-2.264 6.61-2.483 2.655-.151 5.217 1.996 5.506 2.285M95.86 87.542c1.658.648 5.932 6.35 7.23 7.578 1.3 1.227 3.248 1.66 3.754.648.505-1.011-.434-3.607 0-4.33"/><path d="M98.187 89.527c-1.998 2.922-2.46 3.475-7.442 3.475h-1.557c-4.983 0-5.596-.553-7.402-2.967M113.63 54.667l8.93 6.279M112.88 50.626l7.785 3.717M113.225 67.614l13.826 15.092M108.753 131v-23.58l-8.295-5.42H79.474l-8.72 5.51V130M137.516 71.814l-6.133-3.94M138.622 68.978l-4.173-2.73M130.517 70.947l-11.72-7.73-6.123-.413M100.458 102l-6.748-5H86.222l-6.748 5M115.651 91.15l-1.27-4.962M120.28 92.449l-3.296-6.432M125.524 93.533l-5.86-8.013M96.811 84.255s.374 3.54-2.508 3.54c-2.412 0-4.438-2.491-4.438-2.491s-2.304 2.492-4.337 2.492c-2.883 0-2.508-3.5-2.508-3.5"/><path d="M53.887 105.872l5.92-2.43 11.26 3.947M127.051 105.872l-7.343-2.43-11.26 3.947M53.753 106v15M125.753 106v15"/></g><path d="M23.965 115.5l.705-2.145.295-1.855h5v4z" fill="#818181"/><path d="M24.965 113.5c-1.786-.176 5-2 5-2-7-1-14-1-20-2 3 3.323 8 7 10 9-4 2-7 4-10 6 7 0 13.334 1.334 20 2v-10s-3.526-2.854-5-3z" fill="#e87a73" stroke="#fff" stroke-width=".7"/><path d="M156.035 115.5l-.705-2.145-.295-1.855h-5v4z" fill="#818181"/><path d="M155.035 113.5c1.786-.176-5-2-5-2 7-1 14-1 20-2-3 3.323-8 7-10 9 4 2 7 4 10 6-7 0-13.333 1.334-20 2v-10s3.526-2.854 5-3z" fill="#e87a73" stroke="#fefefe" stroke-width=".7"/><path d="M100 118.425c24.948 0 45.358-.108 65.316-3.09l.041-15c-22.224 1.501-45.162 3.003-65.357 3.09-18.973-.03-41.982-1.134-65.322-3.08l.076 14.99c23.354 2.867 46.252 3.084 65.246 3.09z" fill="url(#b)" stroke="#fcfcfc" stroke-linecap="round" stroke-linejoin="round" transform="translate(-10.035 13.075)"/><g style="line-height:1.25;text-align:center" font-weight="700" font-size="40" font-family="Maven Pro" letter-spacing="0" word-spacing="0" text-anchor="middle" fill="#fff"><path d="M32.757 125.435c-1.258-.062-2.405-.455-2.283-2.924.121-2.469 1.3-2.747 2.559-2.686a5.37 5.37 0 0 1 2.263.64l.066-1.342a6.462 6.462 0 0 0-2.398-.598c-1.701-.084-3.762.524-3.928 3.915-.167 3.392 1.824 4.199 3.526 4.283a6.462 6.462 0 0 0 2.444-.36l.066-1.343a5.37 5.37 0 0 1-2.315.415zM39.772 120.884a3.257 3.257 0 0 0-1.209.147l.114-2.385-1.438-.069-.394 8.259 1.439.068.22-4.627c.245-.096.572-.153.967-.134 1.343.064 1.436.633 1.41 1.16l-.176 3.716 1.426.068.171-3.595c.075-1.559-.864-2.528-2.53-2.608zM46.88 126.164c-.695-.031-1.432-.221-1.463-1.376l3.848.175c.035-.238.046-.478.058-.742.068-1.498-.672-2.937-2.542-3.022-1.954-.09-2.736 1.257-2.817 3.043-.115 2.541 1.457 3.093 2.644 3.147.959.044 1.713-.162 2.278-.437l.053-1.163a4.695 4.695 0 0 1-2.06.375zm-.152-3.79c.767.034 1.106.77 1.144 1.529l-2.41-.11c.132-1.063.558-1.452 1.266-1.42zM57.621 121.676c-.91-.037-1.688.183-2.176.355-.408-.304-.941-.482-1.6-.51-1.451-.059-2.617.542-2.666.564l-.221 5.407 1.438.06.195-4.737c.302-.047.639-.07.999-.055 1.115.046 1.324.499 1.297 1.158l-.153 3.73 1.427.058.148-3.597c.034-.828-.206-1.126-.206-1.126.35-.07.773-.112 1.228-.093 1.14.046 1.348.523 1.32 1.219l-.152 3.693 1.439.059.148-3.597c.063-1.56-.858-2.522-2.465-2.588zM65.04 121.95c-1.523-.052-2.72.544-2.769.566l-.185 5.421 1.44.05.16-4.702a6.186 6.186 0 0 1 1.119-.07c1.307.044 1.396.612 1.378 1.14l-.127 3.717 1.427.049.123-3.598c.053-1.559-.9-2.516-2.566-2.573zM71.125 128.225l.17-5.986-1.44-.04-.17 5.985zm.205-6.8l.037-1.32-1.475-.042-.038 1.32zM76.766 123.609l.028-1.236-1.415-.032.04-1.776-1.44-.032-.04 1.775-1.008-.023-.028 1.236 1.008.023-.065 2.867c-.029 1.236.674 1.996 1.862 2.023.348.008.661-.045.952-.158l.027-1.188c-.194.08-.411.123-.687.116-.528-.012-.729-.148-.717-.676l.068-2.951zM82.72 123.802l.02-1.332-4.548-.068-.02 1.308 2.7.04-2.81 3.295-.02 1.344 4.608.068.02-1.307-2.796-.042zM91.842 122.41a3.25 3.25 0 0 0-1.199.207l-.007-2.388-1.44.004.023 8.268 1.44-.004-.013-4.632c.24-.109.564-.182.96-.183 1.344-.004 1.465.56 1.467 1.088l.01 3.72 1.428-.004-.01-3.6c-.004-1.56-.991-2.481-2.659-2.477zM98.54 122.351c-.72.01-1.33.151-1.83.362l.016 1.164c.441-.186 1.027-.314 1.747-.324.936-.013 1.279.462 1.288 1.11a7.24 7.24 0 0 0-1.057-.07c-2.4.034-2.56 1.476-2.554 1.92.014.996.7 2.043 2.597 2.016 1.86-.026 2.505-1.079 2.491-2.05l-.022-1.62c-.023-1.644-.971-2.531-2.675-2.508zm1.256 3.98c.008.551-.275.915-1.08.926-.755.011-1.132-.32-1.14-.944-.007-.492.373-.785 1.345-.799.324-.005.612.028.865.06zM104.235 125.345c-.035-1.547.582-1.861 1.59-1.884a3.914 3.914 0 0 1 1.494.254l-.027-1.2a4.666 4.666 0 0 0-1.735-.296c-1.824.041-2.806 1.168-2.761 3.16.045 1.99 1.078 3.06 2.901 3.018a4.666 4.666 0 0 0 1.72-.375l-.027-1.2c-.44.19-.93.321-1.48.334-1.009.023-1.64-.275-1.675-1.81zM114.728 128.044l-2.98-3.235 2.521-2.742-1.907.058-1.948 2.257-.135-4.438-1.44.044.252 8.228 1.44-.044-.06-1.955.383-.42 2.051 2.302zM119.506 123.113l-.045-1.235-1.415.051-.065-1.774-1.439.052.065 1.775-1.007.037.045 1.235 1.007-.037.104 2.866c.045 1.235.792 1.953 1.98 1.91.347-.013.657-.085.94-.215l-.043-1.187c-.189.09-.403.146-.679.156-.528.02-.736-.105-.756-.632l-.107-2.95z" style="-inkscape-font-specification:'Maven Pro Bold'" font-size="12" letter-spacing=".34"/><path d="M128.16 126.086c1.25-1.135 2.653-2.83 2.585-4.4-.05-1.15-.834-2.366-2.884-2.277-.924.04-1.712.422-2.284.807l.062 1.426c.535-.407 1.42-.758 2.224-.792 1.09-.047 1.436.43 1.456.898.064 1.486-2.326 3.716-3.545 4.693l.05 1.175 5.288-.228-.062-1.427zM135.304 119.111c-2.085.096-3.089 1.524-2.963 4.245.125 2.721 1.256 4.05 3.342 3.954 2.097-.097 3.089-1.524 2.963-4.245-.125-2.72-1.244-4.05-3.342-3.954zm.323 6.989c-.803.037-1.73-.245-1.848-2.81-.118-2.554.778-2.931 1.581-2.968.803-.037 1.73.256 1.848 2.81.118 2.565-.778 2.93-1.581 2.968zM141.492 118.891l-1.51 1.058.073 1.534 1.384-.943.305 6.352 1.438-.069-.383-7.995zM145.06 118.72l.071 1.437 3.836-.188-2.866 6.713 1.702-.084 2.959-7.018-.056-1.138z" style="-inkscape-font-specification:'Maven Pro Bold'"/></g><path d="M24.965 126.5c60 3 70 3 130 0" fill="none"/></svg>